<?xml version="1.0" standalone="no"?>
<!DOCTYPE svg PUBLIC "-//W3C//DTD SVG 20010904//EN"
 "http://www.w3.org/TR/2001/REC-SVG-20010904/DTD/svg10.dtd">
<svg version="1.0" xmlns="http://www.w3.org/2000/svg"
 width="512.000000pt" height="512.000000pt" viewBox="0 0 512.000000 512.000000"
 preserveAspectRatio="xMidYMid meet">
<metadata>
Created by potrace 1.14, written by Peter Selinger 2001-2017
</metadata>
<g transform="translate(0.000000,512.000000) scale(0.100000,-0.100000)"
fill="#000000" stroke="none">
<path d="M3870 4004 c-14 -2 -65 -9 -115 -15 -276 -33 -472 -99 -650 -217
-337 -224 -507 -560 -509 -1007 -1 -206 24 -324 102 -480 84 -169 210 -297
371 -378 l104 -52 -64 -29 c-188 -84 -426 -159 -629 -198 -112 -21 -139 -21
-1132 -25 l-1018 -4 0 -250 0 -250 1027 4 c1107 4 1033 1 1267 57 220 53 579
185 896 329 80 36 401 185 713 331 l566 265 1 253 c0 139 -3 251 -7 249 -26
-15 -792 -355 -853 -378 -265 -101 -442 -73 -662 102 -121 96 -174 201 -199
394 -20 157 0 301 62 434 32 68 54 98 117 160 161 159 390 233 765 248 l157 6
0 229 0 228 -142 -1 c-79 -1 -154 -3 -168 -5z"/>
</g>
</svg>
